{
    "asset": {
        "version": "2.0",
        "generator": "Open Asset Import Library (assimp v5.4.0)"
    },
    "extensionsUsed": [
        "KHR_materials_volume",
        "FB_ngon_encoding"
    ],
    "accessors": [
        {
            "bufferView": 0,
            "byteOffset": 0,
            "componentType": 5126,
            "count": 441811,
            "type": "VEC3",
            "max": [
                0.9810606241226196,
                0.24755722284317017,
                0.9772892594337463
            ],
            "min": [
                -0.9810606241226196,
                -0.2416856288909912,
                -0.9659090638160706
            ]
        },
        {
            "bufferView": 1,
            "byteOffset": 0,
            "componentType": 5126,
            "count": 441811,
            "type": "VEC3",
            "max": [
                1.0,
                1.0,
                1.0
            ],
            "min": [
                -1.0,
                -1.0,
                -1.0
            ]
        },
        {
            "bufferView": 2,
            "byteOffset": 0,
            "componentType": 5126,
            "count": 441811,
            "type": "VEC2",
            "max": [
                0.990530252456665,
                1.000077247619629
            ],
            "min": [
                0.0,
                0.01704549789428711
            ]
        },
        {
            "bufferView": 3,
            "byteOffset": 0,
            "componentType": 5125,
            "count": 1756020,
            "type": "SCALAR",
            "max": [
                441810
            ],
            "min": [
                0
            ]
        }
    ],
    "buffers": [
        {
            "byteLength": 21162032,
            "uri": "supcomlogo-v1_0.bin"
        }
    ],
    "bufferViews": [
        {
            "buffer": 0,
            "byteOffset": 0,
            "byteLength": 5301732,
            "target": 34962
        },
        {
            "buffer": 0,
            "byteOffset": 5301732,
            "byteLength": 5301732,
            "target": 34962
        },
        {
            "buffer": 0,
            "byteOffset": 10603464,
            "byteLength": 3534488,
            "target": 34962
        },
        {
            "buffer": 0,
            "byteOffset": 14137952,
            "byteLength": 7024080,
            "target": 34963
        }
    ],
    "materials": [
        {
            "name": "Mat_1"
        }
    ],
    "meshes": [
        {
            "name": "meshes[0]",
            "primitives": [
                {
                    "mode": 4,
                    "material": 0,
                    "indices": 3,
                    "attributes": {
                        "POSITION": 0,
                        "NORMAL": 1,
                        "TEXCOORD_0": 2
                    }
                }
            ]
        }
    ],
    "nodes": [
        {
            "name": "supcomlogo-v1",
            "children": [
                1
            ]
        },
        {
            "name": "Plane",
            "matrix": [
                3.685499906539917,
                0.0,
                0.0,
                0.0,
                0.0,
                1.0,
                0.0,
                0.0,
                0.0,
                0.0,
                1.527999997138977,
                0.0,
                0.0,
                0.0,
                0.0,
                1.0
            ],
            "mesh": 0,
            "extras": {
                "name": "Plane"
            }
        }
    ],
    "scenes": [
        {
            "nodes": [
                0
            ]
        }
    ],
    "scene": 0
}